<?xml version="1.0" encoding="utf-8"?>
<!-- Generator: Adobe Illustrator 19.0.0, SVG Export Plug-In . SVG Version: 6.00 Build 0)  -->
<svg version="1.1" id="Ebene_1" xmlns="http://www.w3.org/2000/svg" xmlns:xlink="http://www.w3.org/1999/xlink" x="0px" y="0px"
	 viewBox="0 0 538.6 198.4" style="enable-background:new 0 0 538.6 198.4;" xml:space="preserve">
<style type="text/css">
	.st0{fill:#5375B1;}
</style>
<g id="XMLID_10_">
	<path id="XMLID_11_" class="st0" d="M92.8,58.6h9.3v14H90.7c-0.8-2.7-3-3.8-5.6-3.8c-4.2,0-6.1,3.4-6.1,7.1c0,3.4,1.9,7.5,6,7.5
		c3.2,0,4.8-1.4,5.3-2.9h13C101.8,90.5,93,94.9,83.5,94.9c-12.8,0-18.9-8.6-18.9-19.3c0-10.6,6.7-18.1,17.4-18.1c4,0,8,1.4,10.8,4.8
		V58.6z"/>
	<path id="XMLID_13_" class="st0" d="M105.9,76.1c0-10.7,9.7-18.7,21-18.7c11.3,0,21,8,21,18.7c0,10.7-9.7,18.7-21,18.7
		C115.6,94.9,105.9,86.9,105.9,76.1z M120.3,76.1c0,4,3.2,6.6,6.6,6.6c3.5,0,6.6-2.7,6.6-6.6c0-4-3.2-6.6-6.6-6.6
		C123.4,69.5,120.3,72.2,120.3,76.1z"/>
	<path id="XMLID_16_" class="st0" d="M179.3,89.3c-4,3.5-8.9,5.5-14.3,5.5c-7.3,0-10.8-3.5-10.8-10.4V68.8h-3.7V58.6h18.6v21.6
		c0,3,1.5,4.1,4.7,4.1c5.3,0,5.3-2.9,5.3-7.7v-7.8H175V58.6h18.7v24.9h3.7v10.2h-18.1V89.3z"/>
	<path id="XMLID_18_" class="st0" d="M210.4,93.7h-8.2v-9.5h8.2c0.6,1,1.3,2,2.3,2.7c1,0.7,2.3,1.3,4.3,1.3c3.3,0,4.5-0.9,4.5-3.3
		s-5-2.7-9.9-4.1c-5-1.4-9.9-3.9-9.9-10.8c0-8.3,5.8-12.6,13.7-12.6c3.2,0,7.3,1,9.7,3.3v-2.2h8.1v10H225c-0.4-1.3-1.2-2.4-2.4-3.2
		c-1.2-0.8-2.6-1.3-4.3-1.3c-2.7,0-3.9,1.7-3.9,3.2c0,3,4.9,3.4,9.8,4.7c4.9,1.3,9.8,3.7,9.8,10.8c0,8.8-6.8,12.1-14.8,12.1
		c-3,0-6.6-1.1-8.9-3V93.7z"/>
	<path id="XMLID_20_" class="st0" d="M261.4,93.7h-22.7V83.5h4V68.8h-4V58.6h18.6v24.9h4.1V93.7z M240.4,52.7v-11h16.8v11H240.4z"/>
	<path id="XMLID_23_" class="st0" d="M284.8,62.6c3.7-3,8.5-5.2,13.3-5.2c9.9,0,11.6,4.8,11.6,9.9v16.1h4.2v10.2h-19.2v-21
		c0-4.3-2.5-5-4.7-5c-2.1,0-5.3,0.7-5.3,5v10.7h4.1v10.2h-22.7V83.5h4V68.8h-4V58.6h18.6V62.6z"/>
	<path id="XMLID_25_" class="st0" d="M326.4,93.7h-8.2v-9.5h8.2c0.6,1,1.3,2,2.3,2.7c1,0.7,2.3,1.3,4.3,1.3c3.3,0,4.5-0.9,4.5-3.3
		s-5-2.7-9.9-4.1c-5-1.4-9.9-3.9-9.9-10.8c0-8.3,5.8-12.6,13.7-12.6c3.2,0,7.3,1,9.7,3.3v-2.2h8.1v10H341c-0.4-1.3-1.2-2.4-2.4-3.2
		c-1.2-0.8-2.6-1.3-4.3-1.3c-2.7,0-3.9,1.7-3.9,3.2c0,3,4.9,3.4,9.8,4.7c4.9,1.3,9.8,3.7,9.8,10.8c0,8.8-6.8,12.1-14.8,12.1
		c-3,0-6.6-1.1-8.9-3V93.7z"/>
	<path id="XMLID_27_" class="st0" d="M144.9,115.8v24.9c0,9.2-8.8,15-23.3,15c-5.7,0-10.2-0.8-15.6-3v-10.4c4.3,2.2,9.1,3.6,14,3.6
		c9.4,0,10.8-4.2,10.8-7.4v-3.1c-3.3,3-7.2,4.2-11.6,4.2c-10.4,0-16.5-7.2-16.5-17.4c0-10.4,6.1-17.8,16.8-17.8
		c4.7,0,8.4,1.2,11.3,4.9h0.1v-3.7h18v10.2H144.9z M123.7,129.3c3.9,0,7.1-2.5,7.1-6.7c0-3.6-2.9-6.8-6.6-6.8c-3.7,0-6.8,3-6.8,6.8
		C117.4,126.1,120.2,129.3,123.7,129.3z"/>
	<path id="XMLID_30_" class="st0" d="M192.6,132.1c-3,6.8-11,9.7-18,9.7c-17.1,0-22.6-9.2-22.6-18.4c0-12.5,9.7-19,21.4-19
		c14.8,0,20.4,7.4,20.4,21.6h-26.8c-0.1,4.3,2.2,6.8,6.9,6.8c2.4,0,4.8-1,6-3.2L192.6,132.1z M179.9,120.3c0-4.1-1.5-7.1-6-7.1
		c-4.8,0-7.1,3.2-7.1,7.1H179.9z"/>
	<path id="XMLID_33_" class="st0" d="M216.7,108.8c0,1.2,0,1.7,0.5,1.7c0.8,0,1-0.4,1.2-0.7c1.3-3.5,4.3-5.4,8.1-5.4
		c5.1,0,8.1,3.5,8.1,8.4c0,5.1-2.7,8.4-7.9,8.4c-4.5,0-7.6-1.7-8.4-6.5c-0.3-0.6-0.6-0.8-1-0.8c-0.6,0-0.7,0.4-0.7,1.1v15.5h4.7
		v10.2h-23.5v-10.2h4.2v-14.7h-4.1v-10.2h18.8V108.8z"/>
	<path id="XMLID_35_" class="st0" d="M254.7,110.1c3.4-3.8,8.3-5.8,13.3-5.7c4.5-0.1,7.8,1.4,10.5,4.9c3.5-3.2,7.8-4.9,12.5-4.9
		c6.7,0,11.1,3.5,11.1,11.4v14.7h3.8v10.2h-18.4v-21.4c0-3-1.5-4.1-4.3-4.1c-2.4,0-4.1,0.6-4.1,4.3v10.9h3.8v10.2h-18.4v-21.2
		c0-3.2-1.4-4.2-4.1-4.2c-2.3,0-4.3,0.9-4.3,4.2v10.9h3.8v10.2h-22.2v-10.2h3.8v-14.7h-3.8v-10.2h16.9V110.1z"/>
	<path id="XMLID_37_" class="st0" d="M349.9,115.8v14.7h4v10.2h-17.6v-5.2h-0.1c-3.2,4.1-6.6,6.3-12.1,6.3
		c-10.5,0-16.5-9.1-16.5-18.7c0-10.7,5.6-18.7,16.9-18.7c5,0,9.4,2.5,12,6.6h0.1v-5.4H354v10.2H349.9z M336.2,123.4
		c0-3.7-3.2-6.7-6.8-6.7s-6.6,3.2-6.6,6.7c0,3.7,2.8,6.6,6.6,6.6C333,130.1,336.2,127.2,336.2,123.4z"/>
	<path id="XMLID_40_" class="st0" d="M382.3,140.7h-22.7v-10.2h4v-14.7h-4v-10.2h18.6v24.9h4.1V140.7z M361.3,99.7v-11h16.8v11
		H361.3z"/>
	<path id="XMLID_43_" class="st0" d="M405.7,109.6c3.7-3,8.5-5.2,13.3-5.2c9.9,0,11.6,4.8,11.6,9.9v16.1h4.2v10.2h-19.2v-21
		c0-4.3-2.5-5-4.7-5c-2.1,0-5.3,0.7-5.3,5v10.7h4.1v10.2h-22.7v-10.2h4v-14.7h-4v-10.2h18.6V109.6z"/>
	<path id="XMLID_45_" class="st0" d="M447.3,140.7h-8.2v-9.5h8.2c0.6,1,1.3,2,2.3,2.7c1,0.7,2.3,1.3,4.3,1.3c3.3,0,4.5-0.9,4.5-3.3
		s-5-2.7-9.9-4.1c-5-1.4-9.9-3.9-9.9-10.8c0-8.3,5.8-12.6,13.7-12.6c3.2,0,7.3,1,9.7,3.3v-2.2h8.1v10h-8.2c-0.4-1.3-1.2-2.4-2.4-3.2
		c-1.2-0.8-2.6-1.3-4.3-1.3c-2.7,0-3.9,1.7-3.9,3.2c0,3,4.9,3.4,9.8,4.7s9.8,3.7,9.8,10.8c0,8.8-6.8,12.1-14.8,12.1
		c-3,0-6.6-1.1-8.9-3V140.7z"/>
</g>
<g id="XMLID_3_">
	<path id="XMLID_4_" d="M92.1,154.5h-1.4v-2.4H72.9v2.4h-1.4v-6.4h1.4v2.4h17.8v-8.8h-2.9v-1.5h4.3V154.5z"/>
	<path id="XMLID_6_" d="M92.1,139.2h-1.4v-2.5H72.9v2.5h-1.4v-15.3h5v1.5h-3.7v9.7h7.6v-7.5h1.4v7.5h8.9v-9.7h-3.5v-1.5h4.9V139.2z"
		/>
	<path id="XMLID_8_" d="M76.9,107.7c-2.6,0.8-4.4,3-4.4,5.8c0,2.8,1.1,4.9,4.2,4.9c5.6,0,2.8-13.1,10.4-13.1c3.8,0,5.6,3.6,5.6,6.9
		c0,2.5-1.1,4.8-3.1,6.2v0.1h2.6v1.4h-7v-1.4c3.2,0,6.1-2.7,6.1-6.4c0-2.6-1.4-5.3-4.3-5.3c-6.3,0-2.9,13.1-10.3,13.1
		c-3.8,0-5.5-2.8-5.5-6.4c0-2.1,0.9-4.2,2.6-5.7h-2.1v-1.4h5.4V107.7z"/>
</g>
</svg>
